<svg id="Layer_1" data-name="Layer 1" xmlns="http://www.w3.org/2000/svg" xmlns:xlink="http://www.w3.org/1999/xlink" viewBox="0 0 1538 599"><defs><style>.cls-1,.cls-10,.cls-11,.cls-12,.cls-3,.cls-4,.cls-7{fill:none;}.cls-2{clip-path:url(#clip-path);}.cls-3,.cls-4{stroke:#231f20;}.cls-10,.cls-11,.cls-12,.cls-4{stroke-miterlimit:10;}.cls-5{clip-path:url(#clip-path-2);}.cls-6{clip-path:url(#clip-path-3);}.cls-7{stroke:#241f21;}.cls-15,.cls-19,.cls-20,.cls-8{fill:#231f20;}.cls-9{clip-path:url(#clip-path-5);}.cls-10,.cls-11,.cls-12{stroke:#000;}.cls-11{stroke-width:0.5px;}.cls-12{stroke-width:0.75px;}.cls-13{clip-path:url(#clip-path-6);}.cls-14{fill:#fff;}.cls-15{font-size:46.98px;font-family:CooperHewitt-Medium, Cooper Hewitt;font-weight:500;}.cls-16{letter-spacing:-0.01em;}.cls-17{clip-path:url(#clip-path-7);}.cls-18{clip-path:url(#clip-path-8);}.cls-19,.cls-20{font-size:30px;font-family:CooperHewitt-Semibold, Cooper Hewitt;font-weight:600;}.cls-19{letter-spacing:0em;}.cls-20{letter-spacing:0em;}</style><clipPath id="clip-path"><rect class="cls-1" x="57" y="147.98" width="290.73" height="290.73"/></clipPath><clipPath id="clip-path-2"><rect class="cls-1" x="435.76" y="147.98" width="290.73" height="290.73"/></clipPath><clipPath id="clip-path-3"><path class="cls-1" d="M471.71,148c-35.23,0-35.23,35.23-35.23,35.23V400.57c0,35.24,35.23,35.24,35.23,35.24H690.53c35.23,0,35.23-35.24,35.23-35.24V183.21c0-35.23-35.23-35.23-35.23-35.23Z"/></clipPath><clipPath id="clip-path-5"><rect class="cls-1" x="814.51" y="147.98" width="290.73" height="290.73"/></clipPath><clipPath id="clip-path-6"><path class="cls-1" d="M850.72,148c-35.23,0-35.23,35.23-35.23,35.23V400.62c0,35.24,35.23,35.24,35.23,35.24H1070c35.23,0,35.23-35.24,35.23-35.24V183.21C1105.24,148,1070,148,1070,148Z"/></clipPath><clipPath id="clip-path-7"><rect class="cls-1" x="1193.27" y="153.85" width="290.73" height="290.73"/></clipPath><clipPath id="clip-path-8"><path class="cls-1" d="M1228.5,153.85c-35.23,0-35.23,35.24-35.23,35.24V406.5c0,35.23,35.23,35.23,35.23,35.23h217.76c35.23,0,35.23-35.23,35.23-35.23V189.09c0-35.24-35.23-35.24-35.23-35.24Z"/></clipPath></defs><title>desk-reseach</title><g class="cls-2"><path class="cls-3" d="M93.7,149.45s-35.23,0-35.23,35.23V402s0,35.23,35.23,35.23H311s35.23,0,35.23-35.23V184.68s0-35.23-35.23-35.23Z"/><path d="M122.72,237.5c13-.39,45.91-2.44,59.52,0,12.56,2.29,15.83,9.4,16.37,10.82,0,2.46.07,17.72.16,38H204c.08-19.24.14-33.55.16-35.92.51-1.36,4.26-11,16.84-13.3,13.61-2.47,48.05,2.06,61,2.46v46.76h4.17v-50.8l-2-.07c-3.47-.11-49.76-5.06-65.1-2.27-10.31,1.88-14.67,9.06-17.06,12.53-1.59-3.2-6.38-10-19-12.31-15.34-2.79-58.94-.15-62.41,0l-2,.06v52.89h4.17Z"/><path d="M282,342.56c-12.66-1.13-36.23-9.14-61.39-6.21-10,1.18-14.53,5.9-17.1,9.43.08-18.7.24-29.16.38-61.81h-5c.14,32.12.29,41.42.37,59.73-2.56-3.53-7.06-5.33-17.09-6.49a187.23,187.23,0,0,0-20.68-.91c-28.43,0-28.88,3.29-38.75,4.17V284h-4.18v61.08l2.28-.22c.72-.07,33.66-6.65,60.84-3.48,14.25,1.66,15,3.86,16.94,12.23.21.9,1.58,1,2.67.94s2,.11,2.16-.69c2.12-8.34,3.41-11.67,17.66-13.33,27.18-3.17,62.08,6.35,62.8,6.42l2.28.21V284H282Z"/><path class="cls-4" d="M275.52,322.4s-23.43-6.61-38.3-2c-12,3.7-14.56,6.42-14.56,6.42m50.65-18.35s-23.43-6.61-38.29-2c-12,3.7-14.56,6.43-14.56,6.43m53.59-15.78s-23.43-6.61-38.29-2c-12,3.7-14.56,6.42-14.56,6.42m51.56-16s-23.42-6.6-38.29-2c-12,3.69-14.56,6.42-14.56,6.42m53.22-16.34s-23.43-6.6-38.29-2c-12,3.7-14.56,6.42-14.56,6.42m52.85-15.23s-23.43-6.61-38.29-2c-12,3.7-14.56,6.42-14.56,6.42m52.48-14.31s-23.42-6.61-38.29-2c-12,3.7-14.56,6.42-14.56,6.42M130.18,322s23.43-6.61,38.29-2c12,3.7,14.56,6.42,14.56,6.42m-50.65-18.35s23.43-6.6,38.29-2c12,3.7,14.56,6.42,14.56,6.42m-53.58-15.78s23.42-6.61,38.29-2c12,3.7,14.55,6.42,14.55,6.42m-51.56-16s23.43-6.61,38.29-2c12,3.7,14.56,6.42,14.56,6.42m-53.22-16.33s23.43-6.61,38.3-2c12,3.7,14.55,6.42,14.55,6.42m-52.85-15.23s23.43-6.6,38.3-2c12,3.69,14.55,6.42,14.55,6.42m-52.48-14.32s23.43-6.6,38.29-2c12,3.69,14.56,6.42,14.56,6.42"/></g><g class="cls-5"><path class="cls-3" d="M472.46,149.45s-35.24,0-35.24,35.23V402s0,35.23,35.24,35.23H689.79S725,437.24,725,402V184.68s0-35.23-35.23-35.23Z"/></g><g class="cls-6"><rect class="cls-7" x="437.95" y="149.45" width="287.79" height="287.8"/></g><g class="cls-5"><path class="cls-8" d="M551.8,218.53A33.8,33.8,0,0,0,518,252.3v69.12a33.79,33.79,0,0,0,33.76,33.76H601a33.8,33.8,0,0,0,33.77-33.76V252.3A33.81,33.81,0,0,0,601,218.53ZM601,358.12H551.8a36.74,36.74,0,0,1-36.7-36.7V252.3a36.74,36.74,0,0,1,36.7-36.7H601a36.74,36.74,0,0,1,36.7,36.7v69.12a36.74,36.74,0,0,1-36.7,36.7"/><path class="cls-4" d="M570.68,282.61,550,318.37h41.29Zm-1.81,36a18.41,18.41,0,1,1-18.41-18.41A18.41,18.41,0,0,1,568.87,318.65Zm31.62-16.84h13.42m-21.85-15.48h19m-79.77-13.11H611M532.84,253.8H612.6M531.79,236h79.76"/></g><g class="cls-9"><path class="cls-3" d="M851.21,149.45s-35.23,0-35.23,35.23V402s0,35.23,35.23,35.23h217.33s35.24,0,35.24-35.23V184.68s0-35.23-35.24-35.23Z"/><rect class="cls-10" x="900.38" y="234.65" width="119.11" height="119.11" rx="31.71"/></g><line class="cls-11" x1="959.94" y1="404.71" x2="959.94" y2="364.44"/><polygon points="959.93 362.01 950.49 375.44 959.93 375.44 969.38 375.44 959.93 362.01"/><line class="cls-12" x1="959.94" y1="181.98" x2="959.94" y2="222.25"/><polygon points="959.93 224.68 969.38 211.25 959.93 211.25 950.49 211.25 959.93 224.68"/><line class="cls-11" x1="1070.71" y1="294.21" x2="1030.44" y2="294.21"/><polygon points="1028.02 294.21 1041.44 284.76 1041.44 294.21 1041.44 303.65 1028.02 294.21"/><line class="cls-11" x1="849.04" y1="294.21" x2="889.31" y2="294.21"/><polygon points="891.74 294.21 878.31 284.76 878.31 294.21 878.31 303.65 891.74 294.21"/><polygon points="933.3 317.83 917.69 263.17 923.1 263.17 936.84 312.35 950.64 263.17 956.05 263.17 940.44 317.83 933.3 317.83"/><path d="M974.36,298.89h17.21l-8.6-30.8Zm12.21-36.28,15.61,54.66h-5.41l-3.88-13.87H973.12l-3.89,13.87h-5.41l15.61-54.66Z"/><g class="cls-13"><rect class="cls-7" x="815.98" y="149.45" width="287.79" height="287.8"/></g><rect class="cls-14" x="911.92" y="254.82" width="89.02" height="65.77"/><text class="cls-15" transform="translate(905.17 303.27)">De<tspan class="cls-16" x="56.14" y="0">p</tspan><tspan x="81.46" y="0">t</tspan></text><g class="cls-17"><rect class="cls-10" x="1279.14" y="240.53" width="119.11" height="119.11" rx="31.71"/></g><line class="cls-11" x1="1338.69" y1="367.89" x2="1338.69" y2="408.16"/><polygon points="1338.69 410.58 1348.14 397.16 1338.69 397.16 1329.25 397.16 1338.69 410.58"/><line class="cls-12" x1="1338.69" y1="230.55" x2="1338.69" y2="190.28"/><polygon points="1338.69 187.86 1329.25 201.28 1338.69 201.28 1348.14 201.28 1338.69 187.86"/><line class="cls-11" x1="1406.78" y1="300.08" x2="1447.04" y2="300.08"/><polygon points="1449.47 300.08 1436.05 309.52 1436.05 300.08 1436.05 290.63 1449.47 300.08"/><line class="cls-11" x1="1270.49" y1="300.08" x2="1230.23" y2="300.08"/><polygon points="1227.8 300.08 1241.22 309.52 1241.22 300.08 1241.22 290.63 1227.8 300.08"/><polygon points="1312.06 323.7 1296.45 269.04 1301.86 269.04 1315.59 318.22 1329.39 269.04 1334.81 269.04 1319.2 323.7 1312.06 323.7"/><path d="M1353.12,304.76h17.2l-8.6-30.8Zm12.21-36.27,15.61,54.66h-5.41l-3.89-13.88h-19.77L1348,323.15h-5.41l15.61-54.66Z"/><g class="cls-18"><rect class="cls-7" x="1194.74" y="155.32" width="287.79" height="287.8"/></g><g class="cls-17"><path class="cls-3" d="M1230,155.32s-35.23,0-35.23,35.23V407.88s0,35.24,35.23,35.24H1447.3s35.23,0,35.23-35.24V190.55s0-35.23-35.23-35.23Z"/></g><rect class="cls-14" x="1292.87" y="264.91" width="89.02" height="65.77"/><text class="cls-15" transform="translate(1287.76 312.77)">De<tspan class="cls-16" x="56.14" y="0">p</tspan><tspan x="81.46" y="0">t</tspan></text><text class="cls-19" transform="translate(136.2 492.53)">Academic</text><text class="cls-19" transform="translate(510.2 492.53)">Statistical</text><text class="cls-20" transform="translate(832.91 492.53)">Internal-to-Agency</text><text class="cls-19" transform="translate(56.91 101.53)">Some Types of Desk Research</text><text class="cls-20" transform="translate(1207.12 492.53)">External-to-Agency</text><path class="cls-10" d="M1448.54,573H92c-36.71,0-66.46-20.69-66.46-46.22V63.72C25.5,38.19,55.25,17.5,92,17.5H1448.54c36.71,0,66.46,20.69,66.46,46.22V526.78C1515,552.31,1485.25,573,1448.54,573Z"/></svg>