<svg id="Layer_1" data-name="Layer 1" xmlns="http://www.w3.org/2000/svg" viewBox="0 0 1538 599"><defs><style>.cls-1,.cls-2{font-size:30px;}.cls-1,.cls-2,.cls-3,.cls-5{fill:#231f20;}.cls-1,.cls-2,.cls-3{font-family:CooperHewitt-Semibold, Cooper Hewitt;font-weight:600;}.cls-1{letter-spacing:0em;}.cls-2,.cls-3{letter-spacing:0em;}.cls-3{font-size:45px;}.cls-4,.cls-6{fill:none;stroke-miterlimit:10;}.cls-4{stroke:#000;}.cls-6{stroke:#231f20;stroke-width:0.5px;}.cls-7{fill:#fff;}</style></defs><title>project-scope</title><text class="cls-1" transform="translate(102.73 496.53)">Teammates</text><text class="cls-2" transform="translate(471.42 496.53)">Stakeholder</text><text class="cls-2" transform="translate(889.07 496.53)">Location</text><text class="cls-3" transform="translate(92.32 86.53)">Small Scale</text><path class="cls-4" d="M1448.54,573H92c-36.71,0-66.46-20.69-66.46-46.22V63.72C25.5,38.19,55.25,17.5,92,17.5H1448.54c36.71,0,66.46,20.69,66.46,46.22V526.78C1515,552.31,1485.25,573,1448.54,573Z"/><path d="M947.74,286c-19.52.21-35.49-16.86-35.67-38.12s15.48-38.67,35-38.87,35.49,16.87,35.67,38.13-15.48,38.66-35,38.86m43.56-36.79c-.24-26.4-20.07-47.6-44.3-47.35s-43.69,21.87-43.46,48.27A50.8,50.8,0,0,0,910,274.6l38.26,70.82,37.11-71.6h-.1a51,51,0,0,0,6-24.65"/><path class="cls-5" d="M1351.92,204.78c-16.88,0-30.61,15.26-30.61,34v69.64c0,18.76,13.73,34,30.61,34h44.59c16.88,0,30.61-15.26,30.61-34V238.8c0-18.76-13.73-34-30.61-34Zm44.59,140.64h-44.59c-18.34,0-33.27-16.59-33.27-37V238.8c0-20.39,14.93-37,33.27-37h44.59c18.34,0,33.27,16.59,33.27,37v69.64c0,20.39-14.93,37-33.27,37"/><path class="cls-6" d="M1371.34,269.35l-20.77,35.91h41.54Zm-1.82,36.19A18.52,18.52,0,1,1,1351,287.05,18.5,18.5,0,0,1,1369.52,305.54Zm31.81-16.9h13.5m-22-15.55h19.08m-80.24-13.17h80.24m-78.66-19.49h80.24m-81.3-17.91h80.24"/><polygon class="cls-5" points="553.9 231.07 504.77 316.17 603.03 316.17 553.9 231.07"/><text class="cls-2" transform="translate(1298.64 496.53)">Deliverable</text><path class="cls-5" d="M182.74,295.28A41.75,41.75,0,1,0,141,253.54a41.74,41.74,0,0,0,41.74,41.74"/><path class="cls-5" d="M182.74,399.2A41.75,41.75,0,1,0,141,357.46a41.74,41.74,0,0,0,41.74,41.74"/><path class="cls-7" d="M182.74,286.93a33.4,33.4,0,1,0-33.39-33.4,33.39,33.39,0,0,0,33.39,33.4"/><path class="cls-7" d="M182.74,390.85a33.4,33.4,0,1,0-33.39-33.4,33.39,33.39,0,0,0,33.39,33.4"/></svg>