<svg id="Layer_1" data-name="Layer 1" xmlns="http://www.w3.org/2000/svg" viewBox="0 0 1538 599"><defs><style>.cls-1,.cls-2{font-size:30px;}.cls-1,.cls-2,.cls-4,.cls-6{fill:#231f20;}.cls-1,.cls-2,.cls-4{font-family:CooperHewitt-Semibold, Cooper Hewitt;font-weight:600;}.cls-1{letter-spacing:0em;}.cls-2,.cls-3{letter-spacing:0em;}.cls-4{font-size:45px;letter-spacing:0em;}.cls-10,.cls-5,.cls-7,.cls-9{fill:none;stroke-miterlimit:10;}.cls-5,.cls-9{stroke:#000;}.cls-10,.cls-7{stroke:#231f20;}.cls-7{stroke-width:0.5px;}.cls-8{fill:#fff;}.cls-9{stroke-linecap:round;stroke-width:4px;}.cls-10{stroke-width:3px;}</style></defs><title>project-scope</title><text class="cls-1" transform="translate(102.73 496.53)">Teammates</text><text class="cls-2" transform="translate(365.49 496.53)">Individual<tspan x="-25.44" y="36">Stakeholders</tspan></text><text class="cls-1" transform="translate(574.19 496.53)">Institutional<tspan class="cls-3"><tspan x="-7.14" y="36">Stakeholders</tspan></tspan></text><text class="cls-2" transform="translate(892.29 496.53)">Multiple<tspan x="-11.07" y="36">Locations</tspan></text><text class="cls-4" transform="translate(92.32 86.53)">Medium/Large Scale</text><path class="cls-5" d="M1448.54,573H92c-36.71,0-66.46-20.69-66.46-46.22V63.72C25.5,38.19,55.25,17.5,92,17.5H1448.54c36.71,0,66.46,20.69,66.46,46.22V526.78C1515,552.31,1485.25,573,1448.54,573Z"/><path d="M894.86,249.08c-19.51.2-35.48-16.87-35.67-38.12s15.48-38.67,35-38.87,35.48,16.87,35.67,38.12-15.48,38.67-35,38.87m43.56-36.79c-.23-26.4-20.06-47.6-44.3-47.35s-43.69,21.87-43.46,48.27a50.8,50.8,0,0,0,6.47,24.51l38.26,70.82,37.11-71.61h-.1a50.92,50.92,0,0,0,6-24.64"/><path d="M1000.61,315.08c-19.51.2-35.48-16.87-35.67-38.12s15.48-38.67,35-38.87,35.48,16.87,35.67,38.12-15.48,38.67-35,38.87m43.56-36.79c-.23-26.4-20.06-47.6-44.3-47.35s-43.69,21.87-43.46,48.27a50.8,50.8,0,0,0,6.47,24.51l38.26,70.82,37.11-71.61h-.1a50.92,50.92,0,0,0,6-24.64"/><path class="cls-6" d="M1224.92,196.34c-16.88,0-30.61,15.26-30.61,34V300c0,18.76,13.73,34,30.61,34h44.59c16.88,0,30.61-15.26,30.61-34V230.36c0-18.76-13.73-34-30.61-34ZM1269.51,337h-44.59c-18.34,0-33.27-16.59-33.27-37V230.36c0-20.39,14.93-37,33.27-37h44.59c18.34,0,33.27,16.59,33.27,37V300c0,20.39-14.93,37-33.27,37"/><path class="cls-7" d="M1244.34,260.91l-20.77,35.9h41.54Zm-1.82,36.19A18.52,18.52,0,1,1,1224,278.61,18.5,18.5,0,0,1,1242.52,297.1Zm31.81-16.91h13.5m-22-15.54h19.08m-80.24-13.17h80.24M1206.27,232h80.24m-81.3-17.92h80.24"/><path class="cls-6" d="M1350.92,196.34c-16.88,0-30.61,15.26-30.61,34V300c0,18.76,13.73,34,30.61,34h44.59c16.88,0,30.61-15.26,30.61-34V230.36c0-18.76-13.73-34-30.61-34ZM1395.51,337h-44.59c-18.34,0-33.27-16.59-33.27-37V230.36c0-20.39,14.93-37,33.27-37h44.59c18.34,0,33.27,16.59,33.27,37V300c0,20.39-14.93,37-33.27,37"/><path class="cls-7" d="M1370.34,260.91l-20.77,35.9h41.54Zm-1.82,36.19A18.52,18.52,0,1,1,1350,278.61,18.5,18.5,0,0,1,1368.52,297.1Zm31.81-16.91h13.5m-22-15.54h19.08m-80.24-13.17h80.24M1332.27,232h80.24m-81.3-17.92h80.24"/><text class="cls-2" transform="translate(1255.09 496.53)">Multiple<tspan x="-38.7" y="36">Deliverable(s)</tspan></text><path class="cls-6" d="M137.36,268.09a41.75,41.75,0,1,0-41.74-41.75,41.75,41.75,0,0,0,41.74,41.75"/><path class="cls-6" d="M137.36,372a41.75,41.75,0,1,0-41.74-41.75A41.75,41.75,0,0,0,137.36,372"/><path class="cls-8" d="M137.36,259.74A33.4,33.4,0,1,0,104,226.34a33.4,33.4,0,0,0,33.39,33.4"/><path class="cls-8" d="M137.36,363.66A33.4,33.4,0,1,0,104,330.26a33.4,33.4,0,0,0,33.39,33.4"/><path class="cls-6" d="M228.11,268.09a41.75,41.75,0,1,0-41.74-41.75,41.75,41.75,0,0,0,41.74,41.75"/><path class="cls-6" d="M228.11,372a41.75,41.75,0,1,0-41.74-41.75A41.75,41.75,0,0,0,228.11,372"/><path class="cls-8" d="M228.11,259.74a33.4,33.4,0,1,0-33.39-33.4,33.4,33.4,0,0,0,33.39,33.4"/><path class="cls-8" d="M228.11,363.66a33.4,33.4,0,1,0-33.39-33.4,33.4,33.4,0,0,0,33.39,33.4"/><polygon class="cls-6" points="452.15 184.09 403.02 269.18 501.28 269.18 452.15 184.09"/><polygon class="cls-6" points="452.15 286.91 403.02 372.01 501.28 372.01 452.15 286.91"/><polygon class="cls-6" points="623.9 226.84 574.77 311.93 673.03 311.93 623.9 226.84"/><line class="cls-9" x1="533.23" y1="184.43" x2="533.23" y2="371.93"/><rect class="cls-10" x="561.73" y="214.43" width="123" height="123" rx="12"/></svg>