<svg id="Layer_1" data-name="Layer 1" xmlns="http://www.w3.org/2000/svg" viewBox="0 0 1538 599"><defs><style>.cls-1,.cls-2{font-size:30px;}.cls-1,.cls-2,.cls-4,.cls-6{fill:#231f20;}.cls-1,.cls-2,.cls-4{font-family:CooperHewitt-Semibold, Cooper Hewitt;font-weight:600;}.cls-1{letter-spacing:0em;}.cls-2,.cls-3{letter-spacing:0em;}.cls-4{font-size:45px;letter-spacing:0em;}.cls-5,.cls-7,.cls-8,.cls-9{fill:none;stroke-miterlimit:10;}.cls-5,.cls-8{stroke:#000;}.cls-7,.cls-9{stroke:#231f20;}.cls-7{stroke-width:0.5px;}.cls-8{stroke-linecap:round;stroke-width:4px;}.cls-9{stroke-width:3px;}.cls-10{fill:#fff;}</style></defs><title>project-scope</title><text class="cls-1" transform="translate(102.73 496.53)">Teammates</text><text class="cls-2" transform="translate(365.49 496.53)">Individual<tspan x="-25.44" y="36">Stakeholders</tspan></text><text class="cls-1" transform="translate(574.19 496.53)">Institutional<tspan class="cls-3"><tspan x="-7.14" y="36">Stakeholders</tspan></tspan></text><text class="cls-2" transform="translate(892.29 496.53)">Multiple<tspan x="-3.22" y="36">Location</tspan></text><text class="cls-4" transform="translate(92.32 86.53)">Large Scale</text><path class="cls-5" d="M1448.54,573H92c-36.71,0-66.46-20.69-66.46-46.22V63.72C25.5,38.19,55.25,17.5,92,17.5H1448.54c36.71,0,66.46,20.69,66.46,46.22V526.78C1515,552.31,1485.25,573,1448.54,573Z"/><path class="cls-6" d="M1225.67,94c-16.88,0-30.61,15.26-30.61,34v69.64c0,18.76,13.73,34,30.61,34h44.59c16.88,0,30.61-15.26,30.61-34V128c0-18.76-13.73-34-30.61-34Zm44.59,140.64h-44.59c-18.34,0-33.27-16.59-33.27-37V128c0-20.39,14.93-37,33.27-37h44.59c18.34,0,33.27,16.59,33.27,37v69.64c0,20.39-14.93,37-33.27,37"/><path class="cls-7" d="M1245.09,158.53l-20.77,35.9h41.54Zm-1.82,36.18a18.52,18.52,0,1,1-18.52-18.48A18.5,18.5,0,0,1,1243.27,194.71Zm31.81-16.9h13.5m-22-15.54h19.08m-80.24-13.18h80.24M1207,129.6h80.24M1206,111.69h80.24"/><path class="cls-6" d="M1351.67,94c-16.88,0-30.61,15.26-30.61,34v69.64c0,18.76,13.73,34,30.61,34h44.59c16.88,0,30.61-15.26,30.61-34V128c0-18.76-13.73-34-30.61-34Zm44.59,140.64h-44.59c-18.34,0-33.27-16.59-33.27-37V128c0-20.39,14.93-37,33.27-37h44.59c18.34,0,33.27,16.59,33.27,37v69.64c0,20.39-14.93,37-33.27,37"/><path class="cls-7" d="M1371.09,158.53l-20.77,35.9h41.54Zm-1.82,36.18a18.52,18.52,0,1,1-18.52-18.48A18.5,18.5,0,0,1,1369.27,194.71Zm31.81-16.9h13.5m-22-15.54h19.08m-80.24-13.18h80.24M1333,129.6h80.24M1332,111.69h80.24"/><path class="cls-6" d="M1224.17,254.45c-16.88,0-30.61,15.26-30.61,34v69.64c0,18.76,13.73,34,30.61,34h44.59c16.88,0,30.61-15.26,30.61-34V288.47c0-18.76-13.73-34-30.61-34Zm44.59,140.64h-44.59c-18.34,0-33.27-16.59-33.27-37V288.47c0-20.39,14.93-37,33.27-37h44.59c18.34,0,33.27,16.59,33.27,37v69.64c0,20.39-14.93,37-33.27,37"/><path class="cls-7" d="M1243.59,319l-20.77,35.9h41.54Zm-1.82,36.18a18.52,18.52,0,1,1-18.52-18.48A18.5,18.5,0,0,1,1241.77,355.21Zm31.81-16.9h13.5m-22-15.54h19.08m-80.24-13.18h80.24m-78.66-19.49h80.24m-81.3-17.91h80.24"/><path class="cls-6" d="M1350.17,254.45c-16.88,0-30.61,15.26-30.61,34v69.64c0,18.76,13.73,34,30.61,34h44.59c16.88,0,30.61-15.26,30.61-34V288.47c0-18.76-13.73-34-30.61-34Zm44.59,140.64h-44.59c-18.34,0-33.27-16.59-33.27-37V288.47c0-20.39,14.93-37,33.27-37h44.59c18.34,0,33.27,16.59,33.27,37v69.64c0,20.39-14.93,37-33.27,37"/><path class="cls-7" d="M1369.59,319l-20.77,35.9h41.54Zm-1.82,36.18a18.52,18.52,0,1,1-18.52-18.48A18.5,18.5,0,0,1,1367.77,355.21Zm31.81-16.9h13.5m-22-15.54h19.08m-80.24-13.18h80.24m-78.66-19.49h80.24m-81.3-17.91h80.24"/><text class="cls-2" transform="translate(1255.09 496.53)">Multiple<tspan x="-38.7" y="36">Deliverable(s)</tspan></text><polygon class="cls-6" points="452.15 178.45 403.02 263.55 501.28 263.55 452.15 178.45"/><polygon class="cls-6" points="452.15 281.28 403.02 366.37 501.28 366.37 452.15 281.28"/><polygon class="cls-6" points="623.9 282.7 574.77 367.8 673.03 367.8 623.9 282.7"/><line class="cls-8" x1="533.23" y1="178.8" x2="533.23" y2="366.3"/><rect class="cls-9" x="561.73" y="270.3" width="123" height="123" rx="12"/><polygon class="cls-6" points="623.9 139.45 574.77 224.55 673.03 224.55 623.9 139.45"/><rect class="cls-9" x="561.73" y="127.05" width="123" height="123" rx="12"/><path d="M894.86,176.7c-19.51.2-35.48-16.87-35.67-38.13s15.48-38.66,35-38.87,35.48,16.87,35.67,38.13-15.48,38.66-35,38.87m43.56-36.79c-.23-26.41-20.06-47.6-44.3-47.35s-43.69,21.86-43.46,48.26a50.77,50.77,0,0,0,6.47,24.51l38.26,70.82,37.11-71.6h-.1a50.92,50.92,0,0,0,6-24.64"/><path d="M1000.61,242.7c-19.51.2-35.48-16.87-35.67-38.13s15.48-38.66,35-38.87,35.48,16.87,35.67,38.13-15.48,38.66-35,38.87m43.56-36.79c-.23-26.41-20.06-47.6-44.3-47.35s-43.69,21.86-43.46,48.26a50.77,50.77,0,0,0,6.47,24.51l38.26,70.82,37.11-71.6h-.1a50.92,50.92,0,0,0,6-24.64"/><path d="M923.36,344c-19.51.2-35.48-16.87-35.67-38.13s15.48-38.66,35-38.87,35.48,16.87,35.67,38.13-15.48,38.66-35,38.87m43.56-36.79c-.23-26.41-20.06-47.6-44.3-47.35s-43.69,21.86-43.46,48.26a50.77,50.77,0,0,0,6.47,24.51l38.26,70.82L961,331.8h-.1a50.92,50.92,0,0,0,6-24.64"/><path class="cls-6" d="M137.36,264.7A41.75,41.75,0,1,0,95.62,223a41.75,41.75,0,0,0,41.74,41.74"/><path class="cls-6" d="M137.36,368.62a41.75,41.75,0,1,0-41.74-41.74,41.75,41.75,0,0,0,41.74,41.74"/><path class="cls-10" d="M137.36,256.36A33.4,33.4,0,1,0,104,223a33.4,33.4,0,0,0,33.39,33.4"/><path class="cls-10" d="M137.36,360.28A33.4,33.4,0,1,0,104,326.88a33.4,33.4,0,0,0,33.39,33.4"/><path class="cls-6" d="M228.11,264.7A41.75,41.75,0,1,0,186.37,223a41.75,41.75,0,0,0,41.74,41.74"/><path class="cls-6" d="M228.11,368.62a41.75,41.75,0,1,0-41.74-41.74,41.75,41.75,0,0,0,41.74,41.74"/><path class="cls-10" d="M228.11,256.36A33.4,33.4,0,1,0,194.72,223a33.4,33.4,0,0,0,33.39,33.4"/><path class="cls-10" d="M228.11,360.28a33.4,33.4,0,1,0-33.39-33.4,33.4,33.4,0,0,0,33.39,33.4"/></svg>