<svg id="Layer_1" data-name="Layer 1" xmlns="http://www.w3.org/2000/svg" xmlns:xlink="http://www.w3.org/1999/xlink" viewBox="0 0 1538 599"><defs><style>.cls-1,.cls-5,.cls-7{fill:none;}.cls-2,.cls-3{font-size:30px;}.cls-2,.cls-3,.cls-4,.cls-8{fill:#231f20;}.cls-2,.cls-3,.cls-4{font-family:CooperHewitt-Semibold, Cooper Hewitt;font-weight:600;}.cls-2{letter-spacing:0em;}.cls-3,.cls-4{letter-spacing:0em;}.cls-4{font-size:45px;}.cls-5{stroke:#000;stroke-miterlimit:10;}.cls-6{clip-path:url(#clip-path);}.cls-7{stroke:#231f20;}.cls-9{clip-path:url(#clip-path-2);}.cls-10{clip-path:url(#clip-path-3);}</style><clipPath id="clip-path"><rect class="cls-1" x="45.32" y="181.74" width="463.29" height="228.67"/></clipPath><clipPath id="clip-path-2"><rect class="cls-1" x="538.61" y="181.74" width="463.29" height="228.67"/></clipPath><clipPath id="clip-path-3"><rect class="cls-1" x="1031.89" y="181.74" width="463.29" height="228.67"/></clipPath></defs><title>site-types</title><text class="cls-2" transform="translate(45.32 474.53)">Centralized, Small</text><text class="cls-2" transform="translate(532.2 466.53)">Multi-Campus</text><text class="cls-3" transform="translate(1017.91 466.53)">Decentralized</text><text class="cls-4" transform="translate(45.32 142.53)">Site Types</text><path class="cls-5" d="M1448.54,573H92c-36.71,0-66.46-20.69-66.46-46.22V63.72C25.5,38.19,55.25,17.5,92,17.5H1448.54c36.71,0,66.46,20.69,66.46,46.22V526.78C1515,552.31,1485.25,573,1448.54,573Z"/><g class="cls-6"><path class="cls-7" d="M70.85,182.76s-24.51,0-24.51,24.51v177.6s0,24.51,24.51,24.51H483.07s24.51,0,24.51-24.51V207.27s0-24.51-24.51-24.51Z"/><path class="cls-8" d="M422.57,355.18a14.3,14.3,0,1,0-14.3-14.3,14.29,14.29,0,0,0,14.3,14.3"/><path class="cls-8" d="M429.82,369.68a7.25,7.25,0,1,0-7.25-7.25,7.25,7.25,0,0,0,7.25,7.25"/><path class="cls-8" d="M443.5,337.92a7.25,7.25,0,1,0-7.25-7.26,7.26,7.26,0,0,0,7.25,7.26"/></g><g class="cls-9"><path class="cls-7" d="M564.14,182.76s-24.51,0-24.51,24.51v177.6s0,24.51,24.51,24.51H976.36s24.51,0,24.51-24.51V207.27s0-24.51-24.51-24.51Z"/><path class="cls-8" d="M840.27,279.27A14.3,14.3,0,1,0,826,265a14.3,14.3,0,0,0,14.3,14.3"/><path class="cls-8" d="M799.21,250.46A12.26,12.26,0,1,0,787,238.21a12.26,12.26,0,0,0,12.25,12.25"/><path class="cls-8" d="M801.26,369.48a14.3,14.3,0,1,0-14.3-14.3,14.31,14.31,0,0,0,14.3,14.3"/><path class="cls-8" d="M950.38,369.48A10.42,10.42,0,1,0,940,359.06a10.42,10.42,0,0,0,10.42,10.42"/><path class="cls-8" d="M818.72,340.88a7.25,7.25,0,1,0-7.25-7.25,7.25,7.25,0,0,0,7.25,7.25"/><path class="cls-8" d="M847.32,247.5a7.25,7.25,0,1,0-7.25-7.25,7.25,7.25,0,0,0,7.25,7.25"/><path class="cls-8" d="M864.79,262.34a7.26,7.26,0,1,0-7.26-7.26,7.26,7.26,0,0,0,7.26,7.26"/><path class="cls-8" d="M840.27,296.07a7.25,7.25,0,1,0-7.25-7.25,7.25,7.25,0,0,0,7.25,7.25"/><path class="cls-8" d="M950.38,322.7A10.42,10.42,0,1,0,940,312.28a10.42,10.42,0,0,0,10.42,10.42"/></g><g class="cls-10"><path class="cls-7" d="M1057.43,182.76s-24.51,0-24.51,24.51v177.6s0,24.51,24.51,24.51h412.22s24.51,0,24.51-24.51V207.27s0-24.51-24.51-24.51Z"/><path class="cls-8" d="M1333.56,279.27a14.3,14.3,0,1,0-14.3-14.3,14.3,14.3,0,0,0,14.3,14.3"/><path class="cls-8" d="M1386.26,266.81a14.3,14.3,0,1,0-14.3-14.3,14.3,14.3,0,0,0,14.3,14.3"/><path class="cls-8" d="M1292.5,250.46a12.26,12.26,0,1,0-12.25-12.25,12.26,12.26,0,0,0,12.25,12.25"/><path class="cls-8" d="M1066,377.58a14.3,14.3,0,1,0-14.3-14.29,14.29,14.29,0,0,0,14.3,14.29"/><path class="cls-8" d="M1326.31,340.2a7.25,7.25,0,1,0-7.25-7.25,7.24,7.24,0,0,0,7.25,7.25"/><path class="cls-8" d="M1340.61,247.5a7.25,7.25,0,1,0-7.25-7.25,7.26,7.26,0,0,0,7.25,7.25"/><path class="cls-8" d="M1358.07,262.34a7.26,7.26,0,1,0-7.25-7.26,7.26,7.26,0,0,0,7.25,7.26"/><path class="cls-8" d="M1112,279.27a7.26,7.26,0,1,0-7.25-7.26,7.26,7.26,0,0,0,7.25,7.26"/><path class="cls-8" d="M1189.65,296.07a7.25,7.25,0,1,0-7.25-7.25,7.25,7.25,0,0,0,7.25,7.25"/><path class="cls-8" d="M1212.53,301.86a7.25,7.25,0,1,0-7.25-7.25,7.24,7.24,0,0,0,7.25,7.25"/><path class="cls-8" d="M1196.9,330a7.25,7.25,0,1,0-7.25-7.25,7.26,7.26,0,0,0,7.25,7.25"/><path class="cls-8" d="M1379.22,383.16a7.26,7.26,0,1,0-7.26-7.26,7.26,7.26,0,0,0,7.26,7.26"/><path class="cls-8" d="M1474.82,383.16a7.26,7.26,0,1,0-7.26-7.26,7.26,7.26,0,0,0,7.26,7.26"/></g></svg>